<?xml version="1.0" standalone="no"?><!DOCTYPE svg PUBLIC "-//W3C//DTD SVG 1.1//EN" "http://www.w3.org/Graphics/SVG/1.1/DTD/svg11.dtd"><svg t="1591623098232" class="icon" viewBox="0 0 1024 1024" version="1.1" xmlns="http://www.w3.org/2000/svg" p-id="3697" xmlns:xlink="http://www.w3.org/1999/xlink" width="200" height="200"><defs><style type="text/css"></style></defs><path d="M914.9 370.8c-7.7 2.8-30.4 47.4-30.4 130.9s22.7 128.1 31.3 130.9c7.7-2.8 30.4-47.4 30.4-130.9s-22.7-128.1-31.3-130.9z" fill="#ff8198" p-id="3698"></path><path d="M984.5 501.7c0-64.8-14-132.8-43.5-158.2-54.5-194-224.6-336-425.7-336-230.9 0-402 136.9-437.2 349.1C56.4 388 46 446 46 501.7c0 81.5 21.6 169.2 69.2 169.2s69.2-87.7 69.2-169.2c0-77.5-19.9-159.8-62.7-167.7C163.8 157.9 314.8 45.8 515.2 45.8c177.5 0 328.5 121.8 383.4 290.7-36 17.9-52.5 94-52.5 165.2 0 60.8 12.1 125.1 38 153.7-55.4 128.3-168.3 222.7-303.6 246.1-11.1-39.6-47.2-68.9-90.3-68.9-51.9 0-94.2 42.3-94.2 94.2 0 51.9 42.3 94.2 94.2 94.2 47.4 0 86.4-35.4 92.9-81.1 150.2-24.5 275.7-128.4 336.6-270 44.3-5.4 64.8-89.3 64.8-168.2z m-838.5 0c0 83.5-22.7 128.1-30.4 130.9-8.6-2.8-31.3-47.4-31.3-130.9s22.7-128.1 30.4-130.9c8.6 2.8 31.3 47.4 31.3 130.9z m400.1 425.1c0 30.8-25.1 55.9-55.9 55.9s-55.9-25.1-55.9-55.9c0-30.8 25.1-55.9 55.9-55.9s55.9 25.1 55.9 55.9z m369.7-294.1c-8.6-2.8-31.3-47.4-31.3-130.9s22.7-128.1 30.4-130.9c8.6 2.8 31.3 47.4 31.3 130.9s-22.7 128-30.4 130.9z" p-id="3699" fill="#ff8198"></path><path d="M490.2 871c-30.8 0-55.9 25.1-55.9 55.9 0 30.8 25.1 55.9 55.9 55.9s55.9-25.1 55.9-55.9c0-30.9-25.1-55.9-55.9-55.9zM698.8 606.7l-367.2-10c102.7 94 259.6 98.3 367.2 10z" fill="#ff8198" p-id="3700"></path><path d="M740.5 621.4l-26.3-27.8c-4.9 4.7-10.2 8.9-15.3 13.1-107.6 88.3-264.5 84-367.2-10-4.9-4.5-9.9-9-14.6-13.9l-27.8 26.3c62.7 66.2 147.2 99.5 231.8 99.5 78.8 0.1 157.8-28.8 219.4-87.2z" p-id="3701" fill="#ff8198"></path></svg>