<?xml version="1.0" standalone="no"?><!DOCTYPE svg PUBLIC "-//W3C//DTD SVG 1.1//EN" "http://www.w3.org/Graphics/SVG/1.1/DTD/svg11.dtd"><svg t="1591623135326" class="icon" viewBox="0 0 1024 1024" version="1.1" xmlns="http://www.w3.org/2000/svg" p-id="5242" xmlns:xlink="http://www.w3.org/1999/xlink" width="200" height="200"><defs><style type="text/css"></style></defs><path d="M798.2 579c-61.6 0-115.5-34.5-143.4-85.2-27.7 50.7-81.5 85.2-143.3 85.2-61.6 0-115.4-34.4-143.1-84.9C340.7 544.7 287 579 225.3 579c-65 0-124-39.1-150.4-99.7-24.4-56 0.5-116.9 22.5-170.6 5.1-12.4 10-24.4 14-35.8l51.9-147.3c2.8-8 10.4-13.3 18.9-13.3h659.4c8.5 0 16 5.4 18.9 13.4l68.3 194c2.8 8 6.1 16.1 9.4 24.3 8.9 22.3 18.2 45.3 20.9 70 0.4 3.9 0.7 7.8 0.8 11.7 0.7 36.9-14.4 73.1-42.7 101.9-31.6 32.2-76.1 51.4-119 51.4zM654.6 395.9c11 0 19.9 8.9 20 19.9 0.4 67.9 55.8 123.2 123.6 123.2 32.4 0 66.2-14.8 90.4-39.5 20.6-21 31.7-47 31.2-73 0-2.7-0.2-5.4-0.5-8.1-2.1-19.3-10.3-39.8-18.3-59.5-3.5-8.7-7-17.4-10-25.9l-63.6-180.6h-631l-47.2 133.9c-4.2 12-9.4 24.6-14.7 37.6-19 46.4-40.5 99-22.8 139.5 20 45.9 64.6 75.6 113.7 75.6 67.9 0 123.1-55.2 123.1-123.1 0-11 8.9-20 20-20 11 0 20 8.9 20 20 0.1 67.9 55.3 123.1 123.1 123.1 67.9 0 123.1-55.2 123.1-123.1-0.1-11 8.8-19.9 19.9-20zM883.3 908.5H140.5c-11 0-20-9-20-20V623.4c0-11 9-20 20-20s20 9 20 20v245.1h702.8V623.4c0-11 9-20 20-20s20 9 20 20v265.1c0 11-8.9 20-20 20z" fill="#7F7F7F" p-id="5243"></path><path d="M778.3 353.2H245.5c-11 0-20-9-20-20s9-20 20-20h532.7c11 0 20 9 20 20 0.1 11.1-8.9 20-19.9 20z" fill="#7F7F7F" p-id="5244"></path></svg>